<svg width="48" height="31" viewBox="0 0 48 31" fill="none" xmlns="http://www.w3.org/2000/svg">
<path d="M26.2058 26.2058C24.0589 28.3526 21.3236 29.8147 18.3458 30.407C15.368 30.9993 12.2814 30.6953 9.47641 29.5334C6.67139 28.3716 4.27389 26.404 2.58711 23.8795C0.900319 21.3551 1.86992e-07 18.3871 0 15.351C-1.86992e-07 12.3148 0.900318 9.3469 2.5871 6.82244C4.27389 4.29798 6.67139 2.33041 9.47641 1.16853C12.2814 0.0066517 15.368 -0.297349 18.3458 0.294971C21.3236 0.887292 24.0589 2.34933 26.2058 4.4962L15.351 15.351L26.2058 26.2058Z" fill="#006BF8"/>
<path d="M47.9996 4.49713C46.5741 3.07166 44.8819 1.94092 43.0194 1.16946C41.1569 0.398002 39.1607 0.000937959 37.1448 0.000938416C35.1289 0.000938872 33.1327 0.398004 31.2703 1.16946C29.4078 1.94092 27.7155 3.07167 26.29 4.49714L37.1448 15.3519L47.9996 4.49713Z" fill="#006BF8"/>
<path d="M26.29 26.2068C27.7155 27.6323 29.4078 28.763 31.2703 29.5345C33.1327 30.3059 35.1289 30.703 37.1448 30.703C39.1607 30.703 41.1569 30.3059 43.0194 29.5345C44.8819 28.763 46.5741 27.6323 47.9996 26.2068L37.1448 15.352L26.29 26.2068Z" fill="#006BF8"/>
</svg>
